<?xml version="1.0" encoding="UTF-8" ?>
<svg xmlns="http://www.w3.org/2000/svg" xmlns:xlink="http://www.w3.org/1999/xlink" height="600" width="520">
  <g id="background">
    <polygon points="260,600 0.2,450 0.2,150 260,0 519.8,150 519.8,450" style="fill:#C04384;" />
    <polygon points="260,585 13.2,442.5 13.2,157.5 260,15 506.8,157.5 506.8 442.5" style="fill:white;" />
    <polygon points="260,30 26.2,165 26.2,300 493.8,300 493.8,165" style="fill:#C04384;" />
  </g>
  <g id="package: inbodb">
    <path style="fill:#3C3D00"  d="M 34.37 349.42 L 52.12 349.42 L 52.12 428.17 L 34.37 428.17 M 50.68 336.07 Z L 50.05 336.64 L 49.39 337.15 L 48.71 337.61 L 47.99 338.00 L 47.25 338.34 L 46.48 338.61 L 45.70 338.82 L 44.89 338.97 L 44.04 339.06 L 43.17 339.10 L 42.31 339.06 L 41.48 338.97 L 40.65 338.84 L 39.87 338.62 L 39.11 338.35 L 38.39 338.04 L 37.68 337.65 L 37.01 337.20 L 36.35 336.70 L 35.73 336.14 L 35.17 335.54 L 34.65 334.90 L 34.19 334.23 L 33.80 333.54 L 33.46 332.82 L 33.19 332.07 L 32.98 331.29 L 32.83 330.48 L 32.74 329.64 L 32.70 328.78 L 32.74 327.91 L 32.83 327.08 L 32.98 326.27 L 33.19 325.48 L 33.46 324.72 L 33.80 323.99 L 34.19 323.30 L 34.65 322.61 L 35.17 321.97 L 35.73 321.35 L 36.35 320.77 L 37.01 320.25 L 37.68 319.79 L 38.39 319.40 L 39.11 319.07 L 39.87 318.79 L 40.65 318.58 L 41.48 318.43 L 42.31 318.34 L 43.17 318.31 L 44.04 318.34 L 44.89 318.44 L 45.70 318.59 L 46.48 318.81 L 47.25 319.08 L 47.99 319.43 L 48.71 319.83 L 49.39 320.30 L 50.05 320.83 L 50.68 321.42 L 51.26 322.06 L 51.78 322.71 L 52.24 323.40 L 52.63 324.09 L 52.96 324.81 L 53.23 325.56 L 53.45 326.33 L 53.60 327.13 L 53.69 327.95 L 53.72 328.78 L 53.69 329.62 L 53.60 330.43 L 53.45 331.22 L 53.23 331.98 L 52.96 332.73 L 52.63 333.44 L 52.24 334.13 L 51.78 334.80 L 51.26 335.45 M 68.74 349.42 Z L 83.76 349.42 L 85.50 355.56 L 87.82 354.11 L 90.16 352.81 L 92.52 351.66 L 94.92 350.66 L 97.36 349.81 L 99.83 349.13 L 102.33 348.58 L 104.86 348.20 L 107.42 347.98 L 110.01 347.90 L 112.58 347.96 L 115.03 348.18 L 117.39 348.53 L 119.66 349.03 L 121.81 349.66 L 123.87 350.44 L 125.83 351.35 L 127.69 352.42 L 129.44 353.62 L 131.10 354.96 L 132.64 356.44 L 134.03 358.06 L 135.25 359.80 L 136.30 361.70 L 137.20 363.72 L 137.93 365.88 L 138.50 368.18 L 138.90 370.61 L 139.14 373.19 L 139.22 375.90 L 139.22 428.17 L 121.47 428.17 L 121.47 381.13 L 121.41 379.51 L 121.28 378.00 L 121.02 376.55 L 120.67 375.20 L 120.21 373.94 L 119.67 372.76 L 119.01 371.67 L 118.27 370.66 L 117.42 369.75 L 116.46 368.92 L 115.43 368.17 L 114.35 367.49 L 113.17 366.91 L 111.92 366.39 L 110.60 365.96 L 109.21 365.60 L 107.73 365.33 L 106.19 365.12 L 104.57 365.01 L 102.88 364.97 L 101.16 365.02 L 99.46 365.16 L 97.77 365.40 L 96.11 365.74 L 94.46 366.19 L 92.84 366.72 L 91.22 367.35 L 89.63 368.08 L 88.06 368.90 L 86.49 369.83 L 86.49 428.17 L 68.74 428.17 M 172.90 410.49 Z L 174.35 410.92 L 175.82 411.31 L 177.33 411.66 L 178.86 411.95 L 180.41 412.20 L 182.01 412.40 L 183.64 412.57 L 185.30 412.68 L 186.98 412.74 L 188.68 412.77 L 190.39 412.69 L 192.02 412.48 L 193.59 412.12 L 195.08 411.63 L 196.52 410.99 L 197.89 410.20 L 199.20 409.27 L 200.44 408.20 L 201.62 406.99 L 202.72 405.64 L 203.74 404.20 L 204.67 402.70 L 205.48 401.16 L 206.17 399.57 L 206.77 397.91 L 207.25 396.22 L 207.63 394.46 L 207.89 392.65 L 208.06 390.78 L 208.11 388.87 L 208.06 386.95 L 207.92 385.09 L 207.66 383.27 L 207.31 381.51 L 206.85 379.80 L 206.31 378.15 L 205.65 376.54 L 204.91 374.99 L 204.06 373.48 L 203.10 372.03 L 202.06 370.67 L 200.95 369.46 L 199.76 368.40 L 198.50 367.48 L 197.14 366.69 L 195.73 366.06 L 194.24 365.58 L 192.67 365.22 L 191.02 365.02 L 189.29 364.97 L 187.57 365.02 L 185.88 365.16 L 184.18 365.41 L 182.53 365.76 L 180.87 366.20 L 179.25 366.74 L 177.63 367.39 L 176.04 368.12 L 174.47 368.97 L 172.90 369.90 M 187.09 429.69 Z L 183.97 429.61 L 180.82 429.41 L 177.66 429.08 L 174.48 428.60 L 171.30 427.99 L 168.10 427.26 L 164.89 426.37 L 161.65 425.36 L 158.41 424.21 L 155.15 422.93 L 155.15 321.35 L 170.17 318.31 L 172.90 318.31 L 172.90 354.58 L 174.81 353.30 L 176.75 352.18 L 178.69 351.18 L 180.67 350.30 L 182.65 349.57 L 184.68 348.96 L 186.71 348.50 L 188.76 348.17 L 190.83 347.96 L 192.93 347.90 L 196.08 348.00 L 199.08 348.33 L 201.92 348.89 L 204.63 349.65 L 207.18 350.63 L 209.59 351.83 L 211.85 353.25 L 213.96 354.89 L 215.93 356.75 L 217.74 358.83 L 219.40 361.05 L 220.89 363.39 L 222.19 365.82 L 223.33 368.34 L 224.29 370.97 L 225.08 373.68 L 225.68 376.50 L 226.13 379.41 L 226.39 382.42 L 226.47 385.53 L 226.37 389.31 L 226.06 392.97 L 225.54 396.48 L 224.82 399.86 L 223.89 403.10 L 222.76 406.19 L 221.42 409.16 L 219.87 412.00 L 218.11 414.69 L 216.15 417.24 L 214.01 419.61 L 211.68 421.72 L 209.21 423.59 L 206.55 425.21 L 203.73 426.58 L 200.73 427.69 L 197.59 428.56 L 194.26 429.18 L 190.76 429.56 M 262.05 371.57 Z L 261.05 372.91 L 260.14 374.33 L 259.34 375.82 L 258.66 377.40 L 258.07 379.05 L 257.60 380.76 L 257.22 382.56 L 256.95 384.43 L 256.80 386.39 L 256.74 388.41 L 256.80 390.44 L 256.95 392.41 L 257.23 394.31 L 257.61 396.13 L 258.09 397.90 L 258.68 399.59 L 259.38 401.22 L 260.19 402.78 L 261.10 404.28 L 262.12 405.71 L 263.25 407.04 L 264.46 408.22 L 265.77 409.27 L 267.17 410.16 L 268.65 410.92 L 270.23 411.54 L 271.90 412.02 L 273.66 412.36 L 275.51 412.55 L 277.45 412.62 L 279.38 412.54 L 281.22 412.33 L 282.95 412.00 L 284.59 411.54 L 286.14 410.96 L 287.59 410.25 L 288.96 409.42 L 290.22 408.46 L 291.40 407.38 L 292.47 406.17 L 293.46 404.85 L 294.33 403.45 L 295.10 401.96 L 295.78 400.39 L 296.34 398.73 L 296.81 396.99 L 297.18 395.17 L 297.43 393.25 L 297.58 391.25 L 297.63 389.17 L 297.58 387.09 L 297.43 385.08 L 297.18 383.14 L 296.81 381.28 L 296.34 379.50 L 295.78 377.79 L 295.10 376.16 L 294.33 374.61 L 293.46 373.13 L 292.47 371.72 L 291.40 370.42 L 290.22 369.27 L 288.94 368.25 L 287.58 367.36 L 286.10 366.62 L 284.54 366.01 L 282.87 365.54 L 281.12 365.21 L 279.26 365.02 L 277.30 364.97 L 275.36 365.05 L 273.52 365.26 L 271.76 365.59 L 270.09 366.06 L 268.52 366.65 L 267.04 367.39 L 265.65 368.23 L 264.36 369.22 L 263.16 370.33 M 276.99 429.69 Z L 273.63 429.57 L 270.41 429.22 L 267.30 428.65 L 264.32 427.84 L 261.48 426.80 L 258.77 425.53 L 256.19 424.03 L 253.74 422.30 L 251.43 420.34 L 249.23 418.16 L 247.22 415.79 L 245.41 413.30 L 243.81 410.68 L 242.44 407.94 L 241.26 405.08 L 240.31 402.10 L 239.57 399.00 L 239.04 395.77 L 238.72 392.42 L 238.61 388.95 L 238.72 385.47 L 239.05 382.12 L 239.60 378.88 L 240.38 375.76 L 241.36 372.76 L 242.58 369.89 L 244.00 367.13 L 245.65 364.49 L 247.52 361.97 L 249.61 359.59 L 251.87 357.36 L 254.25 355.37 L 256.75 353.63 L 259.37 352.10 L 262.11 350.82 L 264.97 349.77 L 267.95 348.95 L 271.05 348.37 L 274.26 348.02 L 277.60 347.90 L 280.94 348.02 L 284.15 348.37 L 287.22 348.95 L 290.18 349.77 L 293.00 350.82 L 295.71 352.10 L 298.28 353.63 L 300.72 355.37 L 303.03 357.36 L 305.22 359.59 L 307.24 361.97 L 309.05 364.49 L 310.64 367.12 L 312.02 369.87 L 313.18 372.72 L 314.14 375.71 L 314.89 378.80 L 315.42 382.02 L 315.74 385.34 L 315.84 388.79 L 315.74 392.23 L 315.41 395.57 L 314.87 398.78 L 314.09 401.88 L 313.11 404.85 L 311.91 407.72 L 310.49 410.47 L 308.85 413.10 L 307.00 415.60 L 304.91 418.00 L 302.68 420.22 L 300.31 422.20 L 297.82 423.96 L 295.20 425.48 L 292.47 426.77 L 289.63 427.82 L 286.65 428.64 L 283.56 429.22 L 280.33 429.57 M 368.95 364.44 Z L 366.90 364.50 L 364.94 364.68 L 363.07 365.00 L 361.28 365.44 L 359.58 366.00 L 357.97 366.68 L 356.45 367.49 L 355.01 368.42 L 353.67 369.47 L 352.41 370.66 L 351.26 371.95 L 350.23 373.33 L 349.32 374.80 L 348.53 376.36 L 347.85 378.02 L 347.31 379.77 L 346.89 381.60 L 346.59 383.52 L 346.40 385.54 L 346.34 387.66 L 346.39 389.76 L 346.54 391.79 L 346.81 393.75 L 347.16 395.63 L 347.61 397.46 L 348.17 399.20 L 348.83 400.88 L 349.60 402.49 L 350.46 404.02 L 351.42 405.49 L 352.48 406.84 L 353.60 408.05 L 354.80 409.11 L 356.06 410.05 L 357.40 410.83 L 358.81 411.48 L 360.28 411.97 L 361.84 412.33 L 363.46 412.54 L 365.15 412.62 L 366.87 412.57 L 368.58 412.41 L 370.26 412.17 L 371.93 411.83 L 373.57 411.40 L 375.21 410.87 L 376.82 410.24 L 378.42 409.51 L 379.98 408.68 L 381.54 407.76 L 381.54 366.11 L 380.23 365.79 L 378.94 365.50 L 377.65 365.25 L 376.36 365.03 L 375.09 364.86 L 373.84 364.71 L 372.60 364.59 L 371.37 364.50 L 370.16 364.45 M 399.29 428.17 Z L 385.86 428.17 L 382.68 422.25 L 380.68 423.67 L 378.66 424.92 L 376.61 426.05 L 374.52 427.01 L 372.42 427.83 L 370.29 428.50 L 368.14 429.02 L 365.96 429.38 L 363.75 429.61 L 361.51 429.69 L 358.38 429.57 L 355.38 429.24 L 352.53 428.70 L 349.83 427.94 L 347.27 426.96 L 344.87 425.75 L 342.61 424.33 L 340.50 422.69 L 338.52 420.84 L 336.70 418.76 L 335.05 416.52 L 333.57 414.20 L 332.26 411.77 L 331.13 409.24 L 330.17 406.62 L 329.38 403.90 L 328.77 401.08 L 328.33 398.18 L 328.07 395.17 L 327.98 392.06 L 328.10 387.85 L 328.45 383.85 L 329.01 380.04 L 329.82 376.45 L 330.86 373.06 L 332.14 369.89 L 333.63 366.91 L 335.36 364.14 L 337.32 361.57 L 339.51 359.21 L 341.90 357.06 L 344.42 355.13 L 347.10 353.44 L 349.92 351.97 L 352.89 350.72 L 356.00 349.71 L 359.26 348.91 L 362.67 348.36 L 366.23 348.02 L 369.93 347.90 L 371.07 347.90 L 372.20 347.93 L 373.35 347.96 L 374.48 348.02 L 376.81 348.17 L 377.99 348.27 L 379.16 348.38 L 380.35 348.51 L 381.54 348.66 L 381.54 319.83 L 396.56 318.31 L 399.29 318.31 M 433.74 410.49 Z L 435.18 410.92 L 436.66 411.31 L 438.16 411.66 L 439.69 411.95 L 441.25 412.20 L 442.84 412.40 L 444.47 412.57 L 446.13 412.68 L 447.81 412.74 L 449.52 412.77 L 451.22 412.69 L 452.86 412.48 L 454.42 412.12 L 455.92 411.63 L 457.36 410.99 L 458.72 410.20 L 460.04 409.27 L 461.28 408.20 L 462.45 406.99 L 463.55 405.64 L 464.58 404.20 L 465.50 402.70 L 466.31 401.16 L 467.01 399.57 L 467.60 397.91 L 468.08 396.22 L 468.46 394.46 L 468.73 392.65 L 468.89 390.78 L 468.94 388.87 L 468.89 386.95 L 468.75 385.09 L 468.50 383.27 L 468.14 381.51 L 467.69 379.80 L 467.14 378.15 L 466.49 376.54 L 465.74 374.99 L 464.89 373.48 L 463.93 372.03 L 462.90 370.67 L 461.78 369.46 L 460.59 368.40 L 459.33 367.48 L 457.98 366.69 L 456.56 366.06 L 455.07 365.58 L 453.50 365.22 L 451.86 365.02 L 450.12 364.97 L 448.41 365.02 L 446.71 365.16 L 445.02 365.41 L 443.36 365.76 L 441.70 366.20 L 440.08 366.74 L 438.47 367.39 L 436.87 368.12 L 435.31 368.97 L 433.74 369.90 M 447.92 429.69 Z L 444.80 429.61 L 441.65 429.41 L 438.49 429.08 L 435.32 428.60 L 432.13 427.99 L 428.93 427.26 L 425.72 426.37 L 422.48 425.36 L 419.25 424.21 L 415.98 422.93 L 415.98 321.35 L 431.01 318.31 L 433.74 318.31 L 433.74 354.58 L 435.65 353.30 L 437.58 352.18 L 439.53 351.18 L 441.50 350.30 L 443.49 349.57 L 445.51 348.96 L 447.55 348.50 L 449.59 348.17 L 451.67 347.96 L 453.77 347.90 L 456.91 348.00 L 459.91 348.33 L 462.76 348.89 L 465.46 349.65 L 468.02 350.63 L 470.42 351.83 L 472.68 353.25 L 474.79 354.89 L 476.77 356.75 L 478.58 358.83 L 480.24 361.05 L 481.72 363.39 L 483.03 365.82 L 484.16 368.34 L 485.13 370.97 L 485.91 373.68 L 486.52 376.50 L 486.96 379.41 L 487.22 382.42 L 487.30 385.53 L 487.20 389.31 L 486.90 392.97 L 486.38 396.48 L 485.66 399.86 L 484.72 403.10 L 483.60 406.19 L 482.25 409.16 L 480.70 412.00 L 478.94 414.69 L 476.98 417.24 L 474.85 419.61 L 472.52 421.72 L 470.04 423.59 L 467.38 425.21 L 464.56 426.58 L 461.57 427.69 L 458.42 428.56 L 455.09 429.18 L 451.59 429.56"/>
  </g>
</svg>
